# xmcd
#
# Track frame offsets: 
#        150
#        18610
#        32795
#        54925
#        78532
#        95390
#        119327
#        142232
#        166790
#        202872
#        231447
#
# Disc length: 3245 seconds
#
# Revision: 2
# Processed by: cddbd v1.5.2PL0 Copyright (c) Steve Scherf et al.
# Submitted via: ExactAudioCopy v0.99pb4
#
DISCID=8f0cab0b,940cab0b,9c0cab0b
DTITLE=Chris Duarte Group - Love Is Greater Than Me
DYEAR=2000
DGENRE=Blues
TTITLE0=Baddness
TTITLE1=Brand New Day
TTITLE2=All Night
TTITLE3=Metaphor Song
TTITLE4=Free 4 Me
TTITLE5=How Long
TTITLE6=Paper Dolls
TTITLE7=Metaphor Acoustic
TTITLE8=Azul Ezell
TTITLE9=Watch Out
TTITLE10=Duarte E Ezell (Opus 1 No. 3)
EXTD=
EXTT0=
EXTT1=
EXTT2=
EXTT3=
EXTT4=
EXTT5=
EXTT6=
EXTT7=
EXTT8=
EXTT9=
EXTT10=
PLAYORDER=
